<?xml version="1.0" standalone="no"?>
<!DOCTYPE svg PUBLIC "-//W3C//DTD SVG 20010904//EN"
 "http://www.w3.org/TR/2001/REC-SVG-20010904/DTD/svg10.dtd">
<svg version="1.0" xmlns="http://www.w3.org/2000/svg"
 width="654.000000pt" height="656.000000pt" viewBox="0 0 654.000000 656.000000"
 preserveAspectRatio="xMidYMid meet">

<g transform="translate(0.000000,656.000000) scale(0.100000,-0.100000)"
fill="#000000" stroke="none">
<path d="M4219 5136 c-224 -192 -388 -404 -462 -600 -29 -75 -31 -90 -32 -211
l0 -130 44 -90 c35 -73 59 -105 125 -170 89 -89 152 -133 294 -208 112 -59
104 -60 273 35 196 110 330 250 381 395 19 55 23 88 22 173 0 90 -5 117 -30
191 -17 47 -47 116 -68 153 -80 143 -250 340 -399 464 l-75 61 -73 -63z"/>
<path d="M2043 5175 c-81 -22 -131 -52 -190 -111 -64 -64 -103 -143 -110 -225
-5 -54 -9 -62 -32 -70 -117 -44 -202 -117 -252 -216 -32 -64 -34 -74 -33 -163
1 -117 27 -182 104 -264 49 -51 157 -116 194 -116 9 0 19 -8 22 -17 3 -10 19
-46 36 -81 37 -75 98 -133 188 -176 61 -29 72 -31 180 -31 109 0 119 2 183 32
91 43 164 118 202 206 18 41 35 67 45 67 36 0 144 63 193 112 122 122 148 292
70 446 -37 73 -125 153 -204 184 l-64 26 -6 50 c-20 157 -113 277 -259 333
-72 27 -197 34 -267 14z"/>
<path d="M2003 3002 c-94 -108 -218 -248 -275 -310 -163 -178 -197 -222 -238
-307 -60 -123 -75 -189 -74 -340 0 -151 14 -218 74 -340 99 -200 293 -355 515
-411 98 -24 266 -22 367 4 340 91 578 396 578 744 0 131 -21 221 -80 344 -45
92 -62 115 -197 260 -233 250 -353 382 -427 472 -38 45 -70 82 -70 81 -1 0
-78 -89 -173 -197z"/>
<path d="M3860 2245 l0 -945 395 0 395 0 0 373 0 373 223 290 c122 159 235
305 249 324 l27 36 -98 148 -98 147 -65 -78 c-35 -43 -102 -125 -149 -182
l-84 -104 -3 281 -2 282 -395 0 -395 0 0 -945z"/>
</g>
</svg>
